<?xml version="1.0" encoding="utf-8"?><!-- Uploaded to: SVG Repo, www.svgrepo.com, Generator: SVG Repo Mixer Tools -->
<svg fill="#000000" width="800px" height="800px" viewBox="0 0 24 24" id="image" data-name="Flat Color" xmlns="http://www.w3.org/2000/svg" class="icon flat-color"><rect id="primary" x="2" y="3" width="20" height="18" rx="2" style="fill: rgb(0, 0, 0);"></rect><path id="secondary" d="M21.42,19l-6.71-6.71a1,1,0,0,0-1.42,0L11,14.59l-1.29-1.3a1,1,0,0,0-1.42,0L2.58,19a1,1,0,0,0-.29.72,1,1,0,0,0,.31.72A2,2,0,0,0,4,21H20a2,2,0,0,0,1.4-.56,1,1,0,0,0,.31-.72A1,1,0,0,0,21.42,19Z" style="fill: rgb(44, 169, 188);"></path><circle id="secondary-2" data-name="secondary" cx="11" cy="9" r="1.5" style="fill: rgb(44, 169, 188);"></circle></svg>